<!--?xml version="1.0" encoding="utf-8"?-->
<!-- Generator: Adobe Illustrator 18.1.1, SVG Export Plug-In . SVG Version: 6.00 Build 0)  -->

<svg version="1.1" id="_x32_" xmlns="http://www.w3.org/2000/svg" xmlns:xlink="http://www.w3.org/1999/xlink" x="0px" y="0px" viewBox="0 0 512 512" style="width: 48px; height: 48px; opacity: 1;" xml:space="preserve">
<style type="text/css">
	.st0{fill:#4B4B4B;}
</style>
<g>
	<rect x="142.067" y="188.198" class="st0" width="227.858" height="215.642" style="fill: rgb(75, 75, 75);"></rect>
	<rect x="159.236" y="417.467" class="st0" width="67.948" height="94.533" style="fill: rgb(75, 75, 75);"></rect>
	<rect x="284.817" y="417.467" class="st0" width="67.939" height="94.533" style="fill: rgb(75, 75, 75);"></rect>
	<path class="st0" d="M127.864,188.198h-17.579c-27.815,0-50.362,22.547-50.362,50.361v118.508h67.94V188.198z" style="fill: rgb(75, 75, 75);"></path>
	<path class="st0" d="M114.687,377.618c-5.923-4.006-13.123-6.356-20.789-6.349c-5.11,0-10.023,1.041-14.47,2.926
		c-6.68,2.824-12.343,7.524-16.349,13.454c-4.006,5.923-6.356,13.123-6.348,20.788c-0.008,7.682,2.35,14.889,6.364,20.812
		c4.022,5.931,9.692,10.639,16.388,13.454l6.758-16.056c-3.533-1.491-6.576-4.006-8.714-7.161
		c-2.137-3.162-3.368-6.924-3.376-11.048c0-2.752,0.552-5.323,1.546-7.681c1.491-3.533,4.006-6.57,7.168-8.698
		c3.163-2.129,6.909-3.36,11.033-3.367c2.753,0,5.324,0.552,7.682,1.554c3.533,1.482,6.57,4.006,8.699,7.16
		c2.128,3.162,3.359,6.908,3.367,11.033c-0.008,4.124-1.246,7.886-3.375,11.048c-2.138,3.155-5.182,5.67-8.714,7.161l6.758,16.056
		c6.695-2.815,12.366-7.523,16.38-13.454c4.022-5.922,6.38-13.13,6.372-20.812c0-5.11-1.041-10.016-2.926-14.471
		C125.317,387.286,120.616,381.624,114.687,377.618z" style="fill: rgb(75, 75, 75);"></path>
	<path class="st0" d="M452.068,238.559c0-27.814-22.547-50.361-50.361-50.361h-17.579v168.869h67.94V238.559z" style="fill: rgb(75, 75, 75);"></path>
	<path class="st0" d="M452.345,393.966c-2.831-6.68-7.531-12.342-13.462-16.348c-5.914-4.006-13.114-6.356-20.781-6.349
		c-5.11,0-10.023,1.041-14.471,2.926c-6.687,2.824-12.342,7.524-16.348,13.454c-4.006,5.923-6.356,13.123-6.356,20.788
		c0,7.682,2.358,14.889,6.372,20.812c4.014,5.931,9.692,10.639,16.388,13.454l6.758-16.056c-3.541-1.491-6.578-4.006-8.714-7.161
		c-2.138-3.162-3.375-6.924-3.375-11.048c0-2.752,0.552-5.323,1.546-7.681c1.491-3.533,4.006-6.57,7.16-8.698
		c3.162-2.129,6.917-3.36,11.041-3.367c2.745,0,5.324,0.552,7.682,1.554c3.533,1.482,6.561,4.006,8.699,7.16
		c2.129,3.162,3.36,6.908,3.367,11.033c-0.007,4.124-1.246,7.886-3.375,11.048c-2.138,3.155-5.181,5.67-8.722,7.161l6.766,16.056
		c6.696-2.815,12.365-7.523,16.38-13.454c4.014-5.922,6.38-13.13,6.372-20.812C455.27,403.328,454.229,398.422,452.345,393.966z" style="fill: rgb(75, 75, 75);"></path>
	<path class="st0" d="M256,0c-62.924,0-113.933,53.012-113.933,118.389v57.026h227.858v-57.026C369.925,53.012,318.917,0,256,0z
		 M301.551,146.346h-92.924c-18.604,0-33.69-15.079-33.69-33.682s15.087-33.682,33.69-33.682h92.924
		c18.604,0,33.682,15.078,33.682,33.682S320.155,146.346,301.551,146.346z" style="fill: rgb(75, 75, 75);"></path>
	<path class="st0" d="M217.026,95.637c-9.4,0-17.027,7.626-17.027,17.026c0,9.401,7.627,17.027,17.027,17.027
		c9.409,0,17.026-7.626,17.026-17.027C234.053,103.263,226.435,95.637,217.026,95.637z" style="fill: rgb(75, 75, 75);"></path>
	<path class="st0" d="M293.689,104.533c-4.488,0-8.123,3.643-8.123,8.13s3.636,8.13,8.123,8.13c4.495,0,8.13-3.643,8.13-8.13
		S298.183,104.533,293.689,104.533z" style="fill: rgb(75, 75, 75);"></path>
</g>
</svg>
